<svg xmlns="http://www.w3.org/2000/svg" viewBox="0 0 420 320">
  <rect width="420" height="320" fill="#eefbdc"/>
  <rect y="220" width="420" height="100" fill="#9ac36b"/>
  <path d="M210 232V90" stroke="#5b8739" stroke-width="16" stroke-linecap="round"/>
  <g fill="#62ad55"><path d="M210 100c-54-36-100-38-140-8 52 22 96 24 140 8z"/><path d="M214 98c50-42 96-50 138-24-46 30-90 38-138 24z"/><path d="M210 132c-62 12-94 42-110 88 52-12 88-42 110-88z"/><path d="M216 132c64 8 98 36 118 80-54-8-92-36-118-80z"/></g>
  <path d="M178 158c34 50 90 50 120 4-44 14-82 12-120-4z" fill="#f3cf3b" stroke="#bd8c24" stroke-width="6"/>
  <text x="210" y="292" font-family="Arial" font-size="34" font-weight="700" text-anchor="middle" fill="#466c2f">BANANA</text>
</svg>
