<svg xmlns="http://www.w3.org/2000/svg" viewBox="0 0 420 320">
  <rect width="420" height="320" fill="#eff9df"/>
  <rect y="246" width="420" height="74" fill="#6ea64a"/>
  <path d="M210 250V74" stroke="#247a45" stroke-width="11" stroke-linecap="round"/>
  <path d="M210 156c-70-44-104-28-124 20 58 28 98 20 124-20z" fill="#68b859"/>
  <path d="M210 178c70-44 104-28 124 20-58 28-98 20-124-20z" fill="#247a45"/>
  <ellipse cx="210" cy="138" rx="38" ry="74" fill="#f2b84b"/>
  <path d="M184 96c24 42 28 82 0 124M210 70v140M236 96c-24 42-28 82 0 124" stroke="#d99a1e" stroke-width="5" fill="none"/>
  <text x="210" y="292" font-family="Arial" font-size="34" font-weight="700" text-anchor="middle" fill="#17452a">MAIZE</text>
</svg>
