<svg xmlns="http://www.w3.org/2000/svg" viewBox="0 0 420 320">
  <rect width="420" height="320" fill="#ecf9df"/>
  <rect y="220" width="420" height="100" fill="#9bc56c"/>
  <g stroke="#317a3c" stroke-width="13" stroke-linecap="round">
    <path d="M148 235l18-170"/><path d="M215 238l-2-188"/><path d="M282 236l-22-168"/>
  </g>
  <g stroke="#f0d47b" stroke-width="4">
    <path d="M154 170l24 2M160 112l22 2M214 174l28-2M214 112l28-4M274 170l24-4M266 110l24-6"/>
  </g>
  <g fill="#69a747"><path d="M170 82c-36-18-62-10-86 20 38 8 64 2 86-20z"/><path d="M236 72c30-28 62-34 98-18-30 28-62 34-98 18z"/></g>
  <text x="210" y="292" font-family="Arial" font-size="34" font-weight="700" text-anchor="middle" fill="#265d30">SUGARCANE</text>
</svg>
